# xmcd
#
# Track frame offsets:
# 150
# 21823
# 44936
# 73887
# 97558
# 119950
# 138902
# 155695
# 179568
# 196999
# 226511
# 241703
#
# Disc length: 3528 seconds
#
#
# Revision: 0
# Processed by: cddbd v1.5.2PL0 Copyright (c) Steve Scherf et al.
# Submitted via: FreeRIP 2.951 
#
DISCID=a40dc60c
DTITLE=Inimigos Da HP - E Quem Não Gosta do Inimigos
DYEAR=2006
DGENRE=Country
TTITLE0=A Musa Da Praia
TTITLE1=Brilho De Cristal
TTITLE2=Escondida
TTITLE3=Bons Momentos
TTITLE4=Que Situação
TTITLE5=Caça E Caçador
TTITLE6=Quer Dizer
TTITLE7=Morena Da Praia
TTITLE8=Louca Vontade
TTITLE9=Ê Saudade
TTITLE10=Uma Noite E Meia
TTITLE11=Com Amor
EXTD=
EXTT0=
EXTT1=
EXTT2=
EXTT3=
EXTT4=
EXTT5=
EXTT6=
EXTT7=
EXTT8=
EXTT9=
EXTT10=
EXTT11=
PLAYORDER=
